Genre: Action
Language:English  http://www.imdb.com/title/tt1212442/
Source:Bluray


Format : Matroska
File size : 1.10 GiB
Duration : 1h 25mn
Overall bit rate : 1 856 Kbps


Video
Format settings, CABAC : Yes
Format settings, ReFrames : 4 frames
Codec ID : V_MPEG4/ISO/AVC
Duration : 1h 25mn
Bit rate : 1 234 Kbps
Width : 720 pixels
Height : 384 pixels
Display aspect ratio : 1.875
Frame rate mode : Variable
Frame rate : 23.976 fps
Color space : YUV
Chroma subsampling : 4:2:0
Bit depth : 8 bits
Scan type : Progressive
Bits/(Pixel*Frame) : 0.186
Stream size : 718 MiB (64%)
Writing library : x264


Audio
ID : 2
Format : AC-3
Format/Info : Audio Coding 3
Mode extension : CM (complete main)
Codec ID : A_AC3
Duration : 1h 25mn
Bit rate mode : Constant
Bit rate : 640 Kbps
Channel(s) : 6 channels
Channel positions : Front: L C R, Side: L R, LFE
Sampling rate : 48.0 KHz
Bit depth : 16 bits
Video delay : -1mn 5s
Stream size : 390 MiB (34%)
Language : English


Plot:
During a rescue operation in Iraq, Special Forces member Max Forrester is devastated when Sasha, his squad mate and fiance goes missing
 
http://shareimage.org/images/komdn1tq119oktgb67i.png 
http://shareimage.org/images/ylr03nn87fcnf1foq5y3.png 
http://shareimage.org/images/xaeeqchogzhza39cz7z.png